<?xml version="1.0" standalone="no"?>
<!DOCTYPE svg PUBLIC "-//W3C//DTD SVG 20010904//EN"
 "http://www.w3.org/TR/2001/REC-SVG-20010904/DTD/svg10.dtd">
<svg version="1.0" xmlns="http://www.w3.org/2000/svg"
 width="256.000000pt" height="256.000000pt" viewBox="0 0 256.000000 256.000000"
 preserveAspectRatio="xMidYMid meet">

<g transform="translate(0.000000,256.000000) scale(0.100000,-0.100000)"
fill="#5514c4ff" stroke="none">
<path d="M202 2357 l-42 -43 0 -395 0 -395 43 -42 43 -42 197 0 197 0 0 -160
0 -160 -198 0 -198 0 -42 -43 -42 -43 0 -395 0 -395 43 -42 43 -42 394 0 394
0 43 42 43 42 0 198 0 198 160 0 160 0 0 -198 0 -198 43 -42 43 -42 395 0 395
0 42 43 42 43 0 394 0 394 -42 43 -42 43 -198 0 -198 0 0 160 0 160 198 0 198
0 42 43 42 43 0 394 0 394 -42 43 -42 43 -396 0 -396 0 -42 -43 -42 -43 0
-197 0 -197 -160 0 -160 0 0 198 0 198 -43 42 -43 42 -395 0 -395 0 -42 -43z
m758 -277 l0 -160 -122 0 -122 0 -38 -37 -38 -37 0 -123 0 -123 -160 0 -160 0
0 320 0 320 320 0 320 0 0 -160z m1280 -160 l0 -320 -160 0 -160 0 0 122 0
122 -37 38 -37 38 -123 0 -123 0 0 160 0 160 320 0 320 0 0 -320z m-800 -320
l0 -160 160 0 160 0 0 -160 0 -160 -160 0 -160 0 0 -160 0 -160 -160 0 -160 0
0 160 0 160 -160 0 -160 0 0 160 0 160 160 0 160 0 0 160 0 160 160 0 160 0 0
-160z m-800 -762 l0 -122 37 -38 37 -38 123 0 123 0 0 -160 0 -160 -320 0
-320 0 0 320 0 320 160 0 160 0 0 -122z m1600 -198 l0 -320 -320 0 -320 0 0
160 0 160 122 0 122 0 38 37 38 37 0 123 0 123 160 0 160 0 0 -320z"/>
</g>
</svg>
